<svg xmlns="http://www.w3.org/2000/svg" width="19" height="21" viewBox="0 0 19 21" id="copy">
    <g fill="none" fill-rule="evenodd" transform="translate(-3 -2)">
        <polygon points="0 0 25 0 25 25 0 25"></polygon>
        <path fill="currentColor" fill-rule="nonzero" d="M17.0227273,2 L17.0227273,6.53278689 C17.0227273,7.35661737 17.7087444,8.01639344 18.5454545,8.01639344 L22,8.01639344 L22,17.5 C22,18.8807119 20.8807119,20 19.5,20 L9.5,20 C8.11928813,20 7,18.8807119 7,17.5 L7,4.5 C7,3.11928813 8.11928813,2 9.5,2 L17.0227273,2 Z M18.0227273,2.30499639 C18.1293985,2.38591847 18.2258696,2.48161427 18.3088716,2.59046547 L21.6837622,7.01639344 L18.5454545,7.01639344 C18.2524913,7.01639344 18.0227273,6.7954182 18.0227273,6.53278689 L18.0227273,2.30499639 Z"></path>
        <path fill="currentColor" fill-rule="nonzero" d="M15.5,23 L5.5,23 C4.11928813,23 3,21.8807119 3,20.5 L3,7.5 C3,6.11928813 4.11928813,5 5.5,5 L6,5 L6,17.5 C6,19.4329966 7.56700338,21 9.5,21 L17.9499909,21 C17.7183558,22.1411202 16.709479,23 15.5,23 Z"></path>
    </g>
</svg>
