<svg xmlns="http://www.w3.org/2000/svg" enable-background="new 0 0 100 100" viewBox="0 0 100 100" id="instagram">
    <g>
        <path d="M88.6,69.7c0,10.8-8.8,19.5-19.5,19.5l-38-0.1c-10.8,0-19.5-8.8-19.5-19.5l0.1-37.9c0-10.8,8.8-19.5,19.5-19.5l38,0.1
		c10.8,0,19.5,8.8,19.5,19.5L88.6,69.7 M73.9,35.9c0-5-4-9-9-9l-29.6,0.1c-5,0-9,4-9,9l0.1,29.6c0,5,4,9,9,9L65,74.4c5,0,9-4,9-9
		L73.9,35.9L73.9,35.9z"></path>
        <path d="M68.5 40.2c0 .1-.1.2-.2.2l-7.6 0c-.1 0-.2-.1-.2-.2l0-7.7c0-.1.1-.2.2-.2l7.6 0c.1 0 .2.1.2.2L68.5 40.2 68.5 40.2zM58.6 50.7c0 4.6-3.8 8.4-8.4 8.4-4.6 0-8.4-3.8-8.4-8.4 0-4.6 3.8-8.4 8.4-8.4C54.8 42.3 58.6 46.1 58.6 50.7L58.6 50.7z"></path>
        <path d="M38.2,55.9c4.7,10.6,19.6,10.3,24-0.2c1.3-3.1,1.4-6.3,0.2-9.6c0-0.1,0.1-0.3,0.2-0.3l6.7,0c0.2,0,0.4,0.2,0.4,0.4
		c0,5.9,0,11.9,0,18.2c0,3.3-1.8,5.8-5.3,5.8c-10,0-19.4,0-28.2,0c-3.6,0-5.6-2.2-5.6-5.8c0-6.2,0-12.3,0-18.4
		c0-0.1,0.1-0.2,0.2-0.2h6.9c0.1,0,0.2,0.1,0.2,0.3C36.7,49.5,36.8,52.8,38.2,55.9L38.2,55.9z"></path>
    </g>
</svg>