<svg xmlns="http://www.w3.org/2000/svg" enable-background="new 0 0 100 100" viewBox="0 0 100 100" id="linkedin">
    <path d="M91.2,69.6c0,11.4-9.3,20.6-20.7,20.6l-40.2-0.1C19,90.1,9.8,80.8,9.8,69.4l0.1-40.1c0-11.4,9.3-20.6,20.7-20.6l40.2,0.1
	c11.4,0,20.6,9.3,20.6,20.7L91.2,69.6 M36.9,29.9c0-3.2-2.6-5.9-5.9-5.9s-5.9,2.6-5.9,5.9c0,3.2,2.6,5.9,5.9,5.9
	S36.9,33.1,36.9,29.9 M37,41.3c0-0.1-0.1-0.3-0.3-0.3H25.6c-0.1,0-0.3,0.1-0.3,0.3v33.1c0,0.1,0.1,0.3,0.3,0.3h11.1
	c0.1,0,0.3-0.1,0.3-0.3V41.3 M53.1,45.2l0-3.9c0-0.3-0.1-0.4-0.4-0.4h-8.2c-0.3,0-0.5,0.2-0.5,0.5v32.7c0,0.3,0.1,0.4,0.4,0.4l8.8,0
	c0.3,0,0.5-0.2,0.5-0.5c0-5.7,0-11.4,0-16.9c0-1.8,0.4-3.5,1-5c1.8-3.9,8.6-4.1,10.2,0.1c0.6,1.7,1,3.6,1,5.7c0,5.4,0,10.8,0,16.2
	c0,0.2,0.1,0.3,0.3,0.3l9.2,0c0.1,0,0.3-0.1,0.3-0.3c0-6.1,0-12,0-17.7c0-2.3-0.2-4.5-0.5-6.8c-0.7-4.5-3.4-7.6-7.9-8.5
	c-4.9-1-10.9-0.4-13.8,4C53.4,45.6,53.1,45.5,53.1,45.2L53.1,45.2z"></path>
</svg>