<svg xmlns="http://www.w3.org/2000/svg" enable-background="new 0 0 100 100" viewBox="0 0 100 100" id="pinterest">
    <path d="M91.7,70.3c0,11.7-9.5,21.2-21.2,21.2H29.1C17.4,91.5,7.9,82,7.9,70.3V28.9c0-11.7,9.5-21.2,21.2-21.2h41.4
	c11.7,0,21.2,9.5,21.2,21.2V70.3 M46.7,57.9c3.4,4.1,9.4,3.9,13.9,1.8c7.3-3.4,10.5-12.5,10-20c-0.6-8.8-7.8-14.8-16.3-16
	c-4.7-0.7-9.2,0-13.6,1.8c-8.3,3.6-13.6,12.2-11.1,21.3c0.9,3.3,2.9,5.6,5.9,6.9c0.5,0.2,1-0.1,1.2-0.6l0.8-2.8
	c0.1-0.3,0-0.5-0.1-0.8c-0.9-1.4-1.9-2.7-2.2-4.4c-0.6-3.5,0-6.8,1.8-9.7c3.6-5.7,10.4-7.8,16.9-6.4c6.3,1.4,9.4,6.1,9,12.4
	c-0.3,5.5-2.8,14.3-9.5,14.6c-3.6,0.2-6.1-2.7-5-6.3c0.8-2.8,1.5-5.4,2.2-7.8c0.8-3,0-6.7-3.8-6.7c-1.8,0-3.3,0.8-4.4,2.3
	c-2,2.8-1.9,6.6-0.8,9.8c0.1,0.2,0.1,0.3,0,0.5c-1,4.2-2,8.4-3.1,12.7c-1.3,5.2-1.6,9.6-0.8,14.9c0,0.1,0.1,0.2,0.2,0.3
	c0.1,0.1,0.3,0,0.3-0.1c3.3-3.8,5.4-8,6.5-12.8c0.4-1.6,0.8-3.2,1.2-4.8C46.4,57.7,46.5,57.7,46.7,57.9L46.7,57.9z"></path>
</svg>