<svg xmlns="http://www.w3.org/2000/svg" enable-background="new 0 0 100 100" viewBox="0 0 100 100" id="whatsapp">
    <g>
        <path d="M90.3,70.2c0,11.2-9.1,20.3-20.3,20.3l-39.5-0.1c-11.2,0-20.3-9.1-20.3-20.3l0.1-39.5c0-11.2,9.1-20.3,20.3-20.3l39.5,0.1
		c11.2,0,20.3,9.1,20.3,20.3L90.3,70.2 M39.3,71.2c11,5.6,25.1,2.4,31.9-8.2c3.6-5.7,4.8-11.7,3.5-18.1c-1.3-6.5-4.8-11.7-10.5-15.4
		c-4.3-2.8-9-4.1-14.2-4C31.7,26.2,20.3,45.6,29.5,62c0.1,0.2,0.1,0.4,0.1,0.6l-4.2,12.3c-0.1,0.2,0.1,0.4,0.3,0.3l12.7-4
		C38.7,71.1,39,71.1,39.3,71.2L39.3,71.2z"></path>
        <path d="M39,67l-7.2,2.3c-0.2,0-0.3-0.1-0.2-0.3l2.4-7c0.1-0.2,0-0.4-0.1-0.6c-5.2-7.5-5-17.5,0.9-24.5c4.4-5.2,9.9-7.7,16.6-7.6
		c5.6,0.1,10.3,2.2,14.3,6.3c5.7,5.8,7.5,15,3.9,22.5C64,69.6,50.6,73.5,39.7,67C39.5,66.9,39.2,66.9,39,67 M53.8,55.7
		c-3.6-1.2-6.8-4.1-8.7-7.2c-0.2-0.3-0.2-0.7,0.1-1l1.6-2.1c0.2-0.3,0.3-0.6,0.1-0.9l-2.2-5.2c-0.1-0.2-0.3-0.4-0.5-0.4
		c-2-0.6-3.5,0.2-4.6,2.2c-1.2,2.4-1.1,4.9,0.4,7.5c1.9,3.3,4.4,6.2,7.5,8.7c2.3,1.8,5,2.7,7.7,3.6c3.3,1,7.9-0.6,7.9-4.8
		c0-0.5-0.2-0.8-0.7-1.1l-4.6-2.2c-0.5-0.2-1.1-0.1-1.5,0.3l-2,2.4C54.3,55.8,54,55.8,53.8,55.7L53.8,55.7z"></path>
    </g>
</svg>