<svg xmlns="http://www.w3.org/2000/svg" enable-background="new 0 0 100 100" viewBox="0 0 100 100" id="youtube">
    <g>
        <path d="M91.1,70.5c0,11.5-9.3,20.8-20.8,20.8H29.8C18.3,91.3,9,82,9,70.5V30C9,18.5,18.3,9.2,29.8,9.2h40.5
		c11.5,0,20.8,9.3,20.8,20.8V70.5 M68.3,68.4c4.1-0.3,6.4-3.3,6.7-7.5c0.6-7.2,0.6-14.3,0-21.4c-0.4-4.7-2.6-7.2-6.7-7.5
		c-10.5-0.8-22.6-0.9-36.2-0.1c-4.6,0.3-6.8,3.7-7.1,7.9c-0.5,7.3-0.5,14.3,0,21.1c0.4,4.8,2.9,7.3,7.5,7.5
		C45.4,69.2,57.3,69.2,68.3,68.4L68.3,68.4z"></path>
        <path d="M45.1,42.3l13.2,7.2c0.1,0.1,0.1,0.3,0,0.4L45,57c-0.1,0.1-0.3,0-0.3-0.2l0-14.3C44.8,42.4,44.9,42.3,45.1,42.3L45.1,42.3z
		">        </path>
    </g>
</svg>